<svg preserveAspectRatio="none" overflow="visible" style="display: block;" width="39" height="39" viewBox="0 0 39 39" fill="none" xmlns="http://www.w3.org/2000/svg">
<g id="combo-chart">
<g id="Group">
<path id="Vector" d="M8.70931 35.4824H5.13957C3.16728 35.4824 1.56982 33.8849 1.56982 31.9126V26.558C1.56982 24.5857 3.16728 22.9883 5.13957 22.9883H8.70931C10.6816 22.9883 12.2791 24.5857 12.2791 26.558V31.9126C12.2791 33.8849 10.6816 35.4824 8.70931 35.4824Z" fill="url(#paint0_linear_0_300)"/>
<path id="Vector_2" d="M8.70931 23.8807C10.1854 23.8807 11.3866 25.0819 11.3866 26.558V31.9126C11.3866 33.3887 10.1854 34.5899 8.70931 34.5899H5.13957C3.66348 34.5899 2.46226 33.3887 2.46226 31.9126V26.558C2.46226 25.0819 3.66348 23.8807 5.13957 23.8807H8.70931ZM8.70931 22.9883H5.13957C3.16728 22.9883 1.56982 24.5857 1.56982 26.558V31.9126C1.56982 33.8849 3.16728 35.4824 5.13957 35.4824H8.70931C10.6816 35.4824 12.2791 33.8849 12.2791 31.9126V26.558C12.2791 24.5857 10.6816 22.9883 8.70931 22.9883Z" fill="url(#paint1_linear_0_300)"/>
</g>
<g id="Group_2">
<path id="Vector_3" d="M33.6973 35.4824H30.1276C28.1553 35.4824 26.5579 33.8849 26.5579 31.9126V21.2034C26.5579 19.2311 28.1553 17.6337 30.1276 17.6337H33.6973C35.6696 17.6337 37.2671 19.2311 37.2671 21.2034V31.9126C37.2671 33.8849 35.6696 35.4824 33.6973 35.4824Z" fill="url(#paint2_linear_0_300)"/>
<path id="Vector_4" d="M33.6973 18.5261C35.1734 18.5261 36.3747 19.7273 36.3747 21.2034V31.9126C36.3747 33.3887 35.1734 34.5899 33.6973 34.5899H30.1276C28.6515 34.5899 27.4503 33.3887 27.4503 31.9126V21.2034C27.4503 19.7273 28.6515 18.5261 30.1276 18.5261H33.6973ZM33.6973 17.6337H30.1276C28.1553 17.6337 26.5579 19.2311 26.5579 21.2034V31.9126C26.5579 33.8849 28.1553 35.4824 30.1276 35.4824H33.6973C35.6696 35.4824 37.2671 33.8849 37.2671 31.9126V21.2034C37.2671 19.2311 35.6696 17.6337 33.6973 17.6337Z" fill="url(#paint3_linear_0_300)"/>
</g>
<g id="Group_3">
<path id="Vector_5" d="M21.2032 35.4824H17.6335C15.6612 35.4824 14.0637 33.8849 14.0637 31.9126V15.8488C14.0637 13.8765 15.6612 12.279 17.6335 12.279H21.2032C23.1755 12.279 24.773 13.8765 24.773 15.8488V31.9126C24.773 33.8849 23.1755 35.4824 21.2032 35.4824Z" fill="url(#paint4_linear_0_300)"/>
<path id="Vector_6" d="M21.2032 13.1715C22.6793 13.1715 23.8805 14.3727 23.8805 15.8488V31.9126C23.8805 33.3887 22.6793 34.5899 21.2032 34.5899H17.6335C16.1574 34.5899 14.9562 33.3887 14.9562 31.9126V15.8488C14.9562 14.3727 16.1574 13.1715 17.6335 13.1715H21.2032ZM21.2032 12.279H17.6335C15.6612 12.279 14.0637 13.8765 14.0637 15.8488V31.9126C14.0637 33.8849 15.6612 35.4824 17.6335 35.4824H21.2032C23.1755 35.4824 24.773 33.8849 24.773 31.9126V15.8488C24.773 13.8765 23.1755 12.279 21.2032 12.279Z" fill="url(#paint5_linear_0_300)"/>
</g>
<g id="Group_4">
<path id="Vector_7" d="M31.9127 5.13952C30.9953 5.13952 30.1671 5.4965 29.5335 6.06587L22.8402 4.17926C22.419 2.67818 21.0553 1.56978 19.4186 1.56978C17.4713 1.56978 15.8952 3.13154 15.856 5.06991L8.70757 9.20368C8.18103 8.89668 7.57774 8.70927 6.92448 8.70927C4.9522 8.70927 3.35474 10.3067 3.35474 12.279C3.35474 14.2513 4.9522 15.8488 6.92448 15.8488C8.89141 15.8488 10.4835 14.2584 10.4924 12.2951L17.5891 8.18987C18.1263 8.51293 18.7475 8.70927 19.4186 8.70927C20.4145 8.70927 21.3141 8.29875 21.962 7.64191L28.4268 9.46427C28.7731 11.0724 30.201 12.279 31.9127 12.279C33.885 12.279 35.4824 10.6815 35.4824 8.70927C35.4824 6.73698 33.885 5.13952 31.9127 5.13952Z" fill="url(#paint6_linear_0_300)"/>
<path id="Vector_8" d="M19.4186 2.46221C20.6037 2.46221 21.6586 3.26719 21.9817 4.42022L22.1173 4.90213L22.5992 5.03778L29.2925 6.92439L29.7655 7.05826L30.1314 6.72984C30.6294 6.28005 31.263 6.03196 31.9127 6.03196C33.3888 6.03196 34.59 7.23318 34.59 8.70927C34.59 10.1854 33.3888 11.3866 31.9127 11.3866C30.6615 11.3866 29.562 10.4995 29.2978 9.27507L29.1854 8.75032L28.6678 8.60396L22.203 6.7816L21.6943 6.63881L21.3248 7.01542C20.8161 7.53304 20.1397 7.81683 19.4186 7.81683C18.942 7.81683 18.4815 7.68475 18.0496 7.42416L17.598 7.15464L17.1429 7.4188L10.0462 11.524L9.60179 11.7792L9.6 12.2915C9.59286 13.7605 8.39343 14.9563 6.92448 14.9563C5.44839 14.9563 4.24717 13.7551 4.24717 12.279C4.24717 10.8029 5.44839 9.6017 6.92448 9.6017C7.38498 9.6017 7.83298 9.72664 8.25956 9.97474L8.70757 10.2353L9.15557 9.97652L16.304 5.84098L16.7395 5.58931L16.7502 5.08598C16.777 3.64023 17.9746 2.46221 19.4186 2.46221ZM19.4186 1.56978C17.4713 1.56978 15.8952 3.13154 15.856 5.06991L8.70757 9.20368C8.18103 8.89668 7.57774 8.70927 6.92448 8.70927C4.9522 8.70927 3.35474 10.3067 3.35474 12.279C3.35474 14.2513 4.9522 15.8488 6.92448 15.8488C8.89141 15.8488 10.4835 14.2584 10.4924 12.2951L17.5891 8.18987C18.1263 8.51293 18.7475 8.70927 19.4186 8.70927C20.4145 8.70927 21.3141 8.29875 21.962 7.64191L28.4268 9.46427C28.7731 11.0724 30.201 12.279 31.9127 12.279C33.885 12.279 35.4824 10.6815 35.4824 8.70927C35.4824 6.73698 33.885 5.13952 31.9127 5.13952C30.9953 5.13952 30.1671 5.4965 29.5335 6.06587L22.8402 4.17926C22.419 2.67818 21.0553 1.56978 19.4186 1.56978Z" fill="url(#paint7_linear_0_300)"/>
</g>
<path id="Vector_9" d="M31.9125 12.279C33.884 12.279 35.4823 10.6808 35.4823 8.70924C35.4823 6.73772 33.884 5.1395 31.9125 5.1395C29.941 5.1395 28.3428 6.73772 28.3428 8.70924C28.3428 10.6808 29.941 12.279 31.9125 12.279Z" fill="url(#paint8_linear_0_300)"/>
<path id="Vector_10" d="M19.4184 8.70927C21.3899 8.70927 22.9881 7.11104 22.9881 5.13952C22.9881 3.16801 21.3899 1.56978 19.4184 1.56978C17.4469 1.56978 15.8486 3.16801 15.8486 5.13952C15.8486 7.11104 17.4469 8.70927 19.4184 8.70927Z" fill="url(#paint9_linear_0_300)"/>
<path id="Vector_11" d="M6.92448 15.8487C8.896 15.8487 10.4942 14.2505 10.4942 12.279C10.4942 10.3075 8.896 8.70926 6.92448 8.70926C4.95296 8.70926 3.35474 10.3075 3.35474 12.279C3.35474 14.2505 4.95296 15.8487 6.92448 15.8487Z" fill="url(#paint10_linear_0_300)"/>
</g>
<defs>
<linearGradient id="paint0_linear_0_300" x1="2.16918" y1="24.48" x2="11.6797" y2="33.9906" gradientUnits="userSpaceOnUse">
<stop stop-color="white" stop-opacity="0.6"/>
<stop offset="1" stop-color="white" stop-opacity="0.3"/>
</linearGradient>
<linearGradient id="paint1_linear_0_300" x1="2.16918" y1="24.48" x2="11.6797" y2="33.9906" gradientUnits="userSpaceOnUse">
<stop stop-color="white" stop-opacity="0.6"/>
<stop offset="0.4927" stop-color="white" stop-opacity="0"/>
<stop offset="0.9971" stop-color="white" stop-opacity="0.3"/>
</linearGradient>
<linearGradient id="paint2_linear_0_300" x1="25.8186" y1="20.4641" x2="38.0064" y2="32.6519" gradientUnits="userSpaceOnUse">
<stop stop-color="white" stop-opacity="0.6"/>
<stop offset="1" stop-color="white" stop-opacity="0.3"/>
</linearGradient>
<linearGradient id="paint3_linear_0_300" x1="25.8186" y1="20.4641" x2="38.0064" y2="32.6519" gradientUnits="userSpaceOnUse">
<stop stop-color="white" stop-opacity="0.6"/>
<stop offset="0.4927" stop-color="white" stop-opacity="0"/>
<stop offset="0.9971" stop-color="white" stop-opacity="0.3"/>
</linearGradient>
<linearGradient id="paint4_linear_0_300" x1="11.9858" y1="16.4481" x2="26.8509" y2="31.3133" gradientUnits="userSpaceOnUse">
<stop stop-color="white" stop-opacity="0.6"/>
<stop offset="1" stop-color="white" stop-opacity="0.3"/>
</linearGradient>
<linearGradient id="paint5_linear_0_300" x1="11.9858" y1="16.4481" x2="26.8509" y2="31.3133" gradientUnits="userSpaceOnUse">
<stop stop-color="white" stop-opacity="0.6"/>
<stop offset="0.4927" stop-color="white" stop-opacity="0"/>
<stop offset="0.9971" stop-color="white" stop-opacity="0.3"/>
</linearGradient>
<linearGradient id="paint6_linear_0_300" x1="11.5398" y1="2.61536" x2="27.2974" y2="18.3729" gradientUnits="userSpaceOnUse">
<stop stop-color="white" stop-opacity="0.6"/>
<stop offset="1" stop-color="white" stop-opacity="0.3"/>
</linearGradient>
<linearGradient id="paint7_linear_0_300" x1="3.35474" y1="8.70927" x2="35.4824" y2="8.70927" gradientUnits="userSpaceOnUse">
<stop stop-color="white" stop-opacity="0.6"/>
<stop offset="0.4927" stop-color="white" stop-opacity="0"/>
<stop offset="0.9971" stop-color="white" stop-opacity="0.3"/>
</linearGradient>
<linearGradient id="paint8_linear_0_300" x1="29.3884" y1="6.18507" x2="34.4367" y2="11.2334" gradientUnits="userSpaceOnUse">
<stop stop-color="white" stop-opacity="0.7"/>
<stop offset="0.5188" stop-color="white" stop-opacity="0.45"/>
<stop offset="0.9998" stop-color="white" stop-opacity="0.55"/>
</linearGradient>
<linearGradient id="paint9_linear_0_300" x1="16.8942" y1="2.61536" x2="21.9425" y2="7.66369" gradientUnits="userSpaceOnUse">
<stop stop-color="white" stop-opacity="0.7"/>
<stop offset="0.5188" stop-color="white" stop-opacity="0.45"/>
<stop offset="0.9998" stop-color="white" stop-opacity="0.55"/>
</linearGradient>
<linearGradient id="paint10_linear_0_300" x1="4.40031" y1="9.75484" x2="9.44865" y2="14.8032" gradientUnits="userSpaceOnUse">
<stop stop-color="white" stop-opacity="0.7"/>
<stop offset="0.5188" stop-color="white" stop-opacity="0.45"/>
<stop offset="0.9998" stop-color="white" stop-opacity="0.55"/>
</linearGradient>
</defs>
</svg>
